# xmcd
#
# Track frame offsets:
#	150
#	18302
#	37653
#	61325
#	84276
#	108427
#	153579
#
# Disc length: 2701 seconds
#
# Revision: 1
# Processed by: cddbd v1.5.2PL0 Copyright (c) Steve Scherf et al.
# Submitted via: audiograbber 1.83.01
#
DISCID=450a8b07
DTITLE=Be Not Idle In Preparation Of Thy Doom - Sermons From The Unwelcome
DYEAR=2006
DGENRE=Ambient Doom
TTITLE0=Hymn I: Benevolence in Exile
TTITLE1=Hymn II: Malice, Our Wine
TTITLE2=Hymn III: Hexpyre
TTITLE3=Hymn IV: Clarus Terminus
TTITLE4=Hymn V: Sigh of the Extinct
TTITLE5=Hymn VI: Sullen Pride
TTITLE6=Hymn VII: Her Iniquity Everlasting
EXTD=Available on Itunes at http://phobos.apple.com/WebObjects/MZStore.woa/wa/v
EXTD=iewAlbum?id=201262739&s=143444
EXTT0=
EXTT1=
EXTT2=
EXTT3=
EXTT4=
EXTT5=
EXTT6=
PLAYORDER=
